<?xml version="1.0" standalone="no"?>
<!DOCTYPE svg PUBLIC "-//W3C//DTD SVG 20010904//EN"
 "http://www.w3.org/TR/2001/REC-SVG-20010904/DTD/svg10.dtd">
<svg version="1.0" xmlns="http://www.w3.org/2000/svg"
 width="500.000000pt" height="500.000000pt" viewBox="0 0 500.000000 500.000000"
 preserveAspectRatio="xMidYMid meet">
<metadata>
Created by potrace 1.14, written by Peter Selinger 2001-2017
</metadata>
<g transform="translate(0.000000,500.000000) scale(0.100000,-0.100000)"
fill="#000000" stroke="none">
<path d="M1357 3784 c-224 -40 -404 -140 -571 -314 -251 -263 -359 -621 -301
-1003 36 -238 133 -433 304 -610 99 -103 187 -167 303 -222 146 -69 242 -89
428 -89 186 -1 346 26 580 98 l45 13 3 237 c1 130 0 236 -3 236 -3 0 -41 -18
-86 -40 -337 -170 -626 -183 -850 -39 -192 125 -289 325 -289 601 0 194 38
338 121 463 202 301 560 345 1001 124 54 -27 100 -49 103 -49 3 0 5 107 5 238
l0 238 -102 37 c-250 90 -487 118 -691 81z"/>
<path d="M3400 3794 c-71 -9 -206 -47 -281 -79 -135 -57 -273 -161 -394 -295
-201 -226 -295 -527 -266 -849 28 -304 144 -548 356 -750 136 -129 278 -207
462 -253 74 -19 114 -22 253 -22 145 1 177 4 263 27 192 51 327 122 447 234
88 83 163 186 225 311 80 161 104 285 105 525 l0 117 -490 0 -490 0 0 -190 0
-190 249 0 c287 0 293 -2 265 -68 -60 -144 -144 -241 -256 -297 -367 -180
-811 39 -929 460 -29 103 -32 287 -5 384 70 258 287 467 536 517 240 48 502
-57 647 -260 20 -28 38 -53 40 -55 3 -4 24 16 200 180 l82 77 -46 63 c-67 92
-187 209 -271 263 -161 104 -305 146 -522 151 -80 2 -161 1 -180 -1z"/>
</g>
</svg>
